<svg width="32" height="32" viewBox="0 0 32 32" fill="none" xmlns="http://www.w3.org/2000/svg">
<path fill-rule="evenodd" clip-rule="evenodd" d="M19.0899 3.17252C19.1256 3.12488 19.116 3.05729 19.0683 3.02157C19.0356 2.99706 18.9919 2.99312 18.9554 3.01138C18.9021 3.03801 18.8805 3.10278 18.9072 3.15604L18.9821 3.30595C18.859 3.0596 18.8588 3.05967 18.8588 3.05967L18.8557 3.06124L18.8476 3.06533L18.8176 3.08073C18.7916 3.09416 18.754 3.11383 18.7063 3.13934C18.6111 3.19035 18.4758 3.2648 18.3137 3.35936C17.99 3.54815 17.5568 3.81878 17.1221 4.14483C16.689 4.46965 16.245 4.85646 15.9066 5.27934C15.5715 5.6983 15.3155 6.18348 15.3155 6.6995C15.3155 7.20708 14.6459 7.90762 14.1587 7.76532C13.6966 7.63035 13.2275 7.54637 12.7749 7.54637C11.622 7.54637 10.7522 7.69052 10.1659 7.83708C9.87288 7.91034 9.65094 7.98415 9.50013 8.0407C9.42473 8.06898 9.36712 8.09293 9.32732 8.11035C9.30741 8.11906 9.29196 8.12613 9.28095 8.13129L9.26778 8.13756L9.2637 8.13955L9.12367 8.20956C9.12367 8.20956 9.26129 8.14074 9.38753 8.39323L9.3301 8.27837C9.2921 8.20236 9.19967 8.17155 9.12367 8.20956C9.0378 8.25249 9.01178 8.3627 9.06938 8.4395C9.12037 8.50749 9.21682 8.52126 9.2848 8.47028L9.38753 8.39323L9.16215 8.56319L9.16321 8.56459L9.16714 8.56982L9.18212 8.58958C9.1952 8.60677 9.21436 8.63185 9.23906 8.66385C9.28846 8.72784 9.36004 8.81955 9.44939 8.93124C9.62794 9.15443 9.87816 9.45829 10.1645 9.78046C10.4505 10.1022 10.7751 10.445 11.1022 10.7449C11.426 11.0417 11.7666 11.3097 12.0841 11.4685C12.2761 11.5645 12.5068 11.6033 12.7428 11.6117C12.9821 11.6203 13.2475 11.5982 13.5225 11.557C14.0724 11.4745 14.6879 11.311 15.2586 11.1326C15.7287 10.9857 16.1805 11.4415 16.0076 11.9028L15.2674 13.8766C15.1579 14.1686 15.3058 14.494 15.5978 14.6035C15.8897 14.7129 16.2152 14.565 16.3246 14.2731L17.7453 10.4846C17.765 10.4322 17.9736 10.3433 18.0237 10.3183C18.0769 10.2916 17.9607 10.2962 17.9341 10.243L17.8594 10.0937C17.9823 10.3394 17.9824 10.3393 17.9824 10.3393L17.9856 10.3378L17.9936 10.3337L18.0237 10.3183C18.0497 10.3049 18.0873 10.2852 18.1349 10.2597C18.2301 10.2087 18.3655 10.1342 18.5276 10.0396C18.8512 9.85086 19.2844 9.58022 19.7191 9.25418C20.1522 8.92936 20.5963 8.54255 20.9346 8.11966C21.2698 7.7007 21.5258 7.21553 21.5258 6.6995C21.5258 5.74114 20.8964 4.82558 20.3253 4.18311C20.0332 3.85443 19.7419 3.58144 19.5239 3.39075C19.4148 3.29523 19.3235 3.21992 19.2591 3.16813C19.2268 3.14222 19.2013 3.12218 19.1835 3.1084L19.0683 3.02157L19.1571 3.08814L19.1554 3.08689C19.1554 3.08689 19.1546 3.08626 18.9852 3.31209L19.0899 3.17252ZM17.2961 10.0743C17.2932 10.0822 17.2992 10.0898 17.3071 10.0928L17.3255 10.0997C17.352 10.1096 17.3708 10.0748 17.3479 10.0583C17.3296 10.045 17.3038 10.053 17.2961 10.0743ZM17.7372 10.2519L17.7346 10.2531L17.7337 10.25L17.8552 10.0881L17.7514 10.2265C17.7454 10.2345 17.7407 10.243 17.7372 10.2519ZM19.3804 8.80253C19.0335 9.06267 18.5946 8.69821 18.7269 8.28532C18.8589 7.87359 18.9594 7.49057 19.0326 7.11757C19.1952 6.28968 19.2221 5.5177 19.1654 4.59828C19.1596 4.50492 19.0785 4.43459 18.9852 4.44123C18.8919 4.44786 18.8217 4.52894 18.8275 4.6223C18.8828 5.52048 18.8556 6.26134 18.7003 7.0523C18.5578 7.77789 18.3063 8.5511 17.9053 9.5313C17.8697 9.61829 17.7598 9.64527 17.6891 9.58337C17.4836 9.40357 17.2103 9.14727 16.9379 8.84081C16.3798 8.213 15.8801 7.43485 15.8801 6.6995C15.8801 6.36867 16.0475 6.00699 16.3475 5.63203C16.6443 5.26099 17.0471 4.9068 17.4609 4.59648C17.873 4.28739 18.2867 4.02873 18.5982 3.84702C18.6431 3.82083 18.6858 3.79627 18.726 3.77343C18.8629 3.69565 19.0337 3.71194 19.1522 3.81563C19.3577 3.99544 19.631 4.25174 19.9034 4.55819C20.4614 5.18601 20.9612 5.96416 20.9612 6.6995C20.9612 7.03033 20.7937 7.39201 20.4938 7.76698C20.1969 8.13802 19.7942 8.4922 19.3804 8.80253ZM16.0223 9.20287C16.1682 9.28623 16.0704 9.49129 15.9096 9.44264C15.2702 9.2492 14.7682 9.13687 14.35 9.09247C13.7223 9.02585 13.2827 9.11219 12.8541 9.29901C12.7683 9.33638 12.7338 9.43836 12.7749 9.52235C12.8161 9.60634 12.9174 9.64045 13.0033 9.60349C13.3768 9.44285 13.7559 9.37006 14.3142 9.42932C14.8483 9.48602 15.5455 9.66353 16.5531 10.0065C16.5875 10.0182 16.5885 10.0663 16.5546 10.0794C16.1701 10.228 15.647 10.4197 15.0902 10.5938C14.5317 10.7683 13.9475 10.9223 13.4388 10.9986C13.1845 11.0368 12.9559 11.0544 12.763 11.0475C12.5668 11.0405 12.4269 11.0087 12.3366 10.9636C12.0896 10.8401 11.795 10.6141 11.4837 10.3287C11.1757 10.0464 10.8651 9.71881 10.5865 9.40538C10.3083 9.09242 10.0645 8.79643 9.89024 8.57856C9.86691 8.54928 9.87976 8.50574 9.91542 8.49435C10.023 8.45999 10.1521 8.42248 10.3029 8.3848C10.8457 8.24908 11.6696 8.11094 12.7749 8.11094C13.8261 8.11094 15.0418 8.64258 16.0223 9.20287Z" fill="black"/>
<path d="M10.2398 24.2565L10.7136 26.6255C10.7927 27.0213 11.1403 27.3063 11.544 27.3063H13.3394V26.7417H11.544C11.4094 26.7417 11.2935 26.6467 11.2672 26.5148L10.7934 24.1458L10.2398 24.2565Z" fill="black"/>
<path fill-rule="evenodd" clip-rule="evenodd" d="M6 15.168C6 15.7265 6.40542 16.1902 6.938 16.281L8.94658 27.8304C9.06416 28.5064 9.65093 29 10.3371 29H22.5102C23.2192 29 23.8181 28.4741 23.9098 27.7711L25.409 16.277C25.9305 16.1771 26.3245 15.7186 26.3245 15.168C26.3245 14.5444 25.819 14.0389 25.1954 14.0389H7.12914C6.50553 14.0389 6 14.5444 6 15.168ZM25.1954 14.6034H7.12914C6.81734 14.6034 6.56457 14.8562 6.56457 15.168C6.56457 15.4798 6.81734 15.7326 7.12914 15.7326H24.9107L24.9154 15.6961L25.1954 15.7326C25.5072 15.7326 25.7599 15.4798 25.7599 15.168C25.7599 14.8562 25.5072 14.6034 25.1954 14.6034ZM9.5028 27.7336L7.51385 16.2972H24.837L23.35 27.6981C23.295 28.1199 22.9356 28.4354 22.5102 28.4354H10.3371C9.92541 28.4354 9.57335 28.1393 9.5028 27.7336Z" fill="black"/>
</svg>
