<svg width="14" height="14" viewBox="0 0 14 14" fill="none" xmlns="http://www.w3.org/2000/svg">
<path d="M13.0698 12.1337L12.1491 3.05444C12.1325 2.87477 11.9603 2.73856 11.7517 2.73856H9.81086C9.80755 1.22873 8.40329 0 6.67776 0C4.95224 0 3.54798 1.22873 3.54467 2.73856H1.60387C1.39853 2.73856 1.22631 2.87477 1.20643 3.05444L0.285713 12.1337C0.285713 12.1453 0.285713 12.154 0.285713 12.1656C0.285713 13.177 1.34885 14 2.65375 14H10.7018C12.0067 14 13.0698 13.177 13.0698 12.1656C13.0698 12.154 13.0698 12.1453 13.0698 12.1337ZM6.67776 0.695508C7.96611 0.695508 9.01268 1.61126 9.016 2.73856H4.33953C4.34284 1.61126 5.38942 0.695508 6.67776 0.695508ZM10.7018 13.3016H2.65375C1.79265 13.3016 1.09052 12.8002 1.08058 12.1772L1.96818 3.43407H3.54467V4.65411C3.54467 4.84537 3.72351 5.00186 3.9421 5.00186C4.16069 5.00186 4.33953 4.84537 4.33953 4.65411V3.43407H9.016V4.65411C9.016 4.84537 9.19484 5.00186 9.41343 5.00186C9.63202 5.00186 9.81086 4.84537 9.81086 4.65411V3.43407H11.3873L12.2749 12.1801C12.265 12.8002 11.5629 13.3016 10.7018 13.3016Z" fill="black"/>
</svg>
