<svg width="16" height="16" viewBox="0 0 16 16" fill="none" xmlns="http://www.w3.org/2000/svg">
<path d="M1 10V8C1 2.5 6 1 8 1C10 1 15 2.5 15 8V10M1 10C1 10.5552 1 11.1543 1.0984 11.6204C1.24447 12.3122 2 13 3 13C4 13 4.75553 12.3122 4.9016 11.6204C5 11.1543 5 10.5552 5 10C5 9.44485 5 8.84565 4.9016 8.37961C4.75553 7.68776 4 7 3 7C2 7 1.24447 7.68776 1.0984 8.37961C1 8.84565 1 9.44485 1 10ZM15 10C15 10.5552 15 11.1543 14.9016 11.6204C14.7555 12.3122 14 13 13 13C12 13 11.2445 12.3122 11.0984 11.6204C11 11.1543 11 10.5552 11 10C11 9.44485 11 8.84565 11.0984 8.37961C11.2445 7.68776 12 7 13 7C14 7 14.7555 7.68776 14.9016 8.37961C15 8.84565 15 9.44485 15 10ZM15 10C15 15.5 12.5 15 8 15" stroke="black" stroke-width="0.7" stroke-linecap="round" stroke-linejoin="round"/>
</svg>
