<svg width="16" height="16" viewBox="0 0 16 16" fill="none" xmlns="http://www.w3.org/2000/svg">
<path d="M8.3 1.39999L8.62496 1.27001C8.57181 1.13713 8.44311 1.04999 8.3 1.04999C8.15688 1.04999 8.02818 1.13713 7.97503 1.27001L8.3 1.39999ZM8.98513 3.11284L9.3101 2.98285L9.3101 2.98285L8.98513 3.11284ZM13.1872 7.31486L13.0572 7.63982L13.0572 7.63982L13.1872 7.31486ZM14.9 7.99999L15.0565 8.31304C15.1798 8.25141 15.2554 8.12316 15.2497 7.98545C15.244 7.84774 15.158 7.72621 15.03 7.67503L14.9 7.99999ZM12.6061 9.14692L12.4496 8.83387L12.4496 8.83387L12.6061 9.14692ZM9.08665 12.83L8.76682 12.6879L8.76682 12.6879L9.08665 12.83ZM8.3 14.6L7.98016 14.7421C8.03634 14.8685 8.16168 14.95 8.3 14.95C8.43831 14.95 8.56366 14.8685 8.61983 14.7421L8.3 14.6ZM7.51334 12.83L7.19351 12.9722L7.19351 12.9722L7.51334 12.83ZM3.99386 9.14692L4.15038 8.83388L4.15038 8.83388L3.99386 9.14692ZM1.7 7.99999L1.57001 7.67503C1.44204 7.72621 1.35603 7.84774 1.3503 7.98545C1.34457 8.12316 1.4202 8.25141 1.54347 8.31304L1.7 7.99999ZM3.41284 7.31486L3.28285 6.98989L3.28285 6.98989L3.41284 7.31486ZM7.61486 3.11284L7.28989 2.98285L7.61486 3.11284ZM2.24998 1L2.57495 0.870013C2.5218 0.737133 2.3931 0.65 2.24998 0.65C2.10687 0.65 1.97817 0.737133 1.92502 0.870013L2.24998 1ZM2.37975 1.3244L2.70471 1.19442L2.70471 1.19442L2.37975 1.3244ZM3.17558 2.12024L3.0456 2.44521L3.0456 2.44521L3.17558 2.12024ZM3.49998 2.25L3.65651 2.56305C3.77979 2.50141 3.85541 2.37316 3.84968 2.23545C3.84395 2.09775 3.75794 1.97622 3.62997 1.92503L3.49998 2.25ZM3.06554 2.46722L2.90902 2.15417L2.90902 2.15417L3.06554 2.46722ZM2.39897 3.16478L2.07914 3.02263L2.07914 3.02263L2.39897 3.16478ZM2.24998 3.5L1.93015 3.64215C1.98633 3.76854 2.11167 3.85 2.24998 3.85C2.3883 3.85 2.51364 3.76854 2.56982 3.64215L2.24998 3.5ZM2.101 3.16478L1.78116 3.30693L1.78116 3.30693L2.101 3.16478ZM1.43443 2.46722L1.59095 2.15417L1.59095 2.15417L1.43443 2.46722ZM0.999985 2.25L0.869998 1.92503C0.742029 1.97622 0.656015 2.09775 0.650287 2.23545C0.644559 2.37316 0.720184 2.50141 0.84346 2.56305L0.999985 2.25ZM1.32439 2.12024L1.1944 1.79527L1.1944 1.79527L1.32439 2.12024ZM2.12022 1.3244L2.44519 1.45439L2.44519 1.45439L2.12022 1.3244ZM2.24998 12.5L2.57495 12.37C2.5218 12.2371 2.3931 12.15 2.24998 12.15C2.10687 12.15 1.97817 12.2371 1.92502 12.37L2.24998 12.5ZM2.37975 12.8244L2.70471 12.6944L2.70471 12.6944L2.37975 12.8244ZM3.17558 13.6202L3.0456 13.9452L3.0456 13.9452L3.17558 13.6202ZM3.49998 13.75L3.65651 14.063C3.77979 14.0014 3.85541 13.8732 3.84968 13.7355C3.84395 13.5977 3.75794 13.4762 3.62997 13.425L3.49998 13.75ZM3.06554 13.9672L3.22207 14.2803L3.22207 14.2803L3.06554 13.9672ZM2.39897 14.6648L2.71881 14.8069L2.71881 14.8069L2.39897 14.6648ZM2.24998 15L1.93015 15.1421C1.98633 15.2685 2.11167 15.35 2.24998 15.35C2.3883 15.35 2.51364 15.2685 2.56982 15.1421L2.24998 15ZM2.101 14.6648L1.78116 14.8069L1.78116 14.8069L2.101 14.6648ZM1.43443 13.9672L1.2779 14.2803L1.2779 14.2803L1.43443 13.9672ZM0.999985 13.75L0.869998 13.425C0.742029 13.4762 0.656015 13.5977 0.650287 13.7355C0.644559 13.8732 0.720183 14.0014 0.84346 14.063L0.999985 13.75ZM1.32439 13.6202L1.1944 13.2953L1.1944 13.2953L1.32439 13.6202ZM2.12022 12.8244L1.79526 12.6944L1.79526 12.6944L2.12022 12.8244ZM7.97503 1.52998L8.66017 3.24282L9.3101 2.98285L8.62496 1.27001L7.97503 1.52998ZM13.0572 7.63982L14.77 8.32496L15.03 7.67503L13.3171 6.98989L13.0572 7.63982ZM14.7435 7.68694L12.4496 8.83387L12.7627 9.45997L15.0565 8.31304L14.7435 7.68694ZM8.76682 12.6879L7.98016 14.4578L8.61983 14.7421L9.40649 12.9722L8.76682 12.6879ZM8.61983 14.4578L7.83317 12.6879L7.19351 12.9722L7.98016 14.7421L8.61983 14.4578ZM4.15038 8.83388L1.85652 7.68694L1.54347 8.31304L3.83733 9.45997L4.15038 8.83388ZM1.82998 8.32496L3.54283 7.63982L3.28285 6.98989L1.57001 7.67503L1.82998 8.32496ZM7.93983 3.24282L8.62496 1.52998L7.97503 1.27001L7.28989 2.98285L7.93983 3.24282ZM3.54283 7.63982C5.54842 6.83759 7.13759 5.24842 7.93983 3.24282L7.28989 2.98285C6.5588 4.81057 5.11058 6.2588 3.28285 6.98989L3.54283 7.63982ZM7.83317 12.6879C7.08967 11.015 5.78778 9.65257 4.15038 8.83388L3.83733 9.45997C5.32951 10.2061 6.51594 11.4476 7.19351 12.9722L7.83317 12.6879ZM12.4496 8.83387C10.8122 9.65257 9.51032 11.015 8.76682 12.6879L9.40649 12.9722C10.0841 11.4476 11.2705 10.2061 12.7627 9.45997L12.4496 8.83387ZM8.66017 3.24282C9.4624 5.24842 11.0516 6.83759 13.0572 7.63982L13.3171 6.98989C11.4894 6.2588 10.0412 4.81057 9.3101 2.98285L8.66017 3.24282ZM1.92502 1.12999L2.05478 1.45439L2.70471 1.19442L2.57495 0.870013L1.92502 1.12999ZM3.0456 2.44521L3.37 2.57497L3.62997 1.92503L3.30557 1.79527L3.0456 2.44521ZM3.34346 1.93695L2.90902 2.15417L3.22207 2.78027L3.65651 2.56305L3.34346 1.93695ZM2.07914 3.02263L1.93015 3.35785L2.56982 3.64215L2.71881 3.30693L2.07914 3.02263ZM2.56982 3.35785L2.42083 3.02263L1.78116 3.30693L1.93015 3.64215L2.56982 3.35785ZM1.59095 2.15417L1.15651 1.93695L0.84346 2.56305L1.2779 2.78027L1.59095 2.15417ZM1.12997 2.57497L1.45437 2.44521L1.1944 1.79527L0.869998 1.92503L1.12997 2.57497ZM2.44519 1.45439L2.57495 1.12999L1.92502 0.870013L1.79526 1.19442L2.44519 1.45439ZM1.45437 2.44521C1.90631 2.26443 2.26441 1.90633 2.44519 1.45439L1.79526 1.19442C1.68563 1.46848 1.46847 1.68565 1.1944 1.79527L1.45437 2.44521ZM2.42083 3.02263C2.25329 2.64566 1.95992 2.33866 1.59095 2.15417L1.2779 2.78027C1.50166 2.89215 1.67956 3.07832 1.78116 3.30693L2.42083 3.02263ZM2.90902 2.15417C2.54005 2.33866 2.24668 2.64566 2.07914 3.02263L2.71881 3.30693C2.82041 3.07832 2.99831 2.89215 3.22207 2.78027L2.90902 2.15417ZM2.05478 1.45439C2.23555 1.90633 2.59366 2.26443 3.0456 2.44521L3.30557 1.79527C3.0315 1.68565 2.81434 1.46848 2.70471 1.19442L2.05478 1.45439ZM1.92502 12.63L2.05478 12.9544L2.70471 12.6944L2.57495 12.37L1.92502 12.63ZM3.0456 13.9452L3.37 14.075L3.62997 13.425L3.30557 13.2953L3.0456 13.9452ZM3.34346 13.437L2.90902 13.6542L3.22207 14.2803L3.65651 14.063L3.34346 13.437ZM2.07914 14.5226L1.93015 14.8579L2.56982 15.1421L2.71881 14.8069L2.07914 14.5226ZM2.56982 14.8579L2.42083 14.5226L1.78116 14.8069L1.93015 15.1421L2.56982 14.8579ZM1.59095 13.6542L1.15651 13.437L0.84346 14.063L1.2779 14.2803L1.59095 13.6542ZM1.12997 14.075L1.45437 13.9452L1.1944 13.2953L0.869998 13.425L1.12997 14.075ZM2.44519 12.9544L2.57495 12.63L1.92502 12.37L1.79526 12.6944L2.44519 12.9544ZM1.45437 13.9452C1.90631 13.7644 2.26441 13.4063 2.44519 12.9544L1.79526 12.6944C1.68563 12.9685 1.46847 13.1856 1.1944 13.2953L1.45437 13.9452ZM2.42083 14.5226C2.25329 14.1457 1.95992 13.8387 1.59095 13.6542L1.2779 14.2803C1.50166 14.3921 1.67956 14.5783 1.78116 14.8069L2.42083 14.5226ZM2.90902 13.6542C2.54005 13.8387 2.24668 14.1457 2.07914 14.5226L2.71881 14.8069C2.82041 14.5783 2.99831 14.3921 3.22207 14.2803L2.90902 13.6542ZM2.05478 12.9544C2.23555 13.4063 2.59366 13.7644 3.0456 13.9452L3.30557 13.2953C3.0315 13.1856 2.81434 12.9685 2.70471 12.6944L2.05478 12.9544Z" fill="black"/>
</svg>
