<svg width="102" height="58" viewBox="0 0 102 58" fill="none" xmlns="http://www.w3.org/2000/svg">
<path d="M40.5533 9.92045C40.8 9.92041 41 9.71437 41 9.46023C41 9.20605 40.8 9 40.5532 9V9.46023C40.5532 9 40.5534 9 40.5532 9L40.5503 9L40.5434 9.00002L40.5177 9.00018C40.4952 9.00035 40.4624 9.00069 40.4196 9.00136C40.3342 9.00271 40.2091 9.00539 40.0486 9.01073C39.7278 9.02139 39.2651 9.04265 38.6942 9.08509C37.5531 9.16991 35.9763 9.33954 34.2334 9.67918C30.7686 10.3544 26.5597 11.7174 23.8542 14.5041C21.1322 17.3078 20.7339 20.3358 21.0276 22.6554C21.1736 23.8082 21.4894 24.7832 21.7683 25.47C21.9079 25.814 22.0389 26.0873 22.1361 26.2763C22.1847 26.3709 22.2249 26.4445 22.2536 26.4955C22.2679 26.521 22.2794 26.5409 22.2876 26.5549L22.2973 26.5714L22.3003 26.5764L22.3013 26.578C22.3014 26.5782 22.3018 26.5789 22.4161 26.5055L22.3019 26.5791C22.3203 26.6093 22.3414 26.6366 22.3649 26.6608C22.0519 27.6139 21.7648 28.564 21.5075 29.4652C21.0396 31.1037 20.6655 32.597 20.4084 33.6806C20.2797 34.2225 20.1803 34.6624 20.1129 34.9671C20.0792 35.1194 20.0536 35.2381 20.0363 35.3188L20.0167 35.411L20.0116 35.4348L20.01 35.4426C20.01 35.4427 20.0099 35.4432 20.4468 35.5397L20.01 35.4426C19.9583 35.6911 20.1119 35.9364 20.3532 35.9897C20.5944 36.0429 20.832 35.8846 20.8837 35.6361L20.8852 35.629L20.8899 35.6065L20.9089 35.5171C20.9258 35.4383 20.951 35.3217 20.9842 35.1715C21.0507 34.8709 21.149 34.4359 21.2764 33.8991C21.5312 32.8254 21.9018 31.3464 22.3648 29.725C23.2961 26.4634 24.5838 22.6905 26.0313 20.4541C27.4764 18.2213 29.2854 16.7295 30.7368 15.7951C31.4618 15.3283 32.0952 15.0023 32.545 14.7938C32.7699 14.6896 32.9486 14.6148 33.0696 14.5667C33.1301 14.5426 33.1762 14.5252 33.2063 14.514L33.2395 14.502L33.2468 14.4994L33.2479 14.499C33.4818 14.4185 33.6083 14.158 33.5303 13.9169C33.4522 13.6758 33.1992 13.5455 32.9651 13.6259L33.0946 14.026C32.9651 13.6259 32.9653 13.6258 32.9651 13.6259L32.9631 13.6266L32.9595 13.6278L32.9475 13.6321C32.9373 13.6357 32.923 13.6408 32.9046 13.6476C32.8679 13.6612 32.815 13.6812 32.7475 13.7081C32.6126 13.7618 32.4189 13.8429 32.1783 13.9544C31.6974 14.1773 31.0275 14.5225 30.2632 15.0145C28.7359 15.9978 26.8214 17.574 25.2878 19.9435C24.3521 21.3892 23.4958 23.4067 22.759 25.5009C22.7069 25.3868 22.6507 25.2578 22.5927 25.1149C22.3363 24.4833 22.047 23.5887 21.9138 22.5363C21.649 20.4453 21.9953 17.7205 24.4861 15.155C26.9935 12.5723 30.9761 11.2507 34.3995 10.5836C36.1008 10.2521 37.6423 10.0861 38.7586 10.0032C39.3163 9.96169 39.7671 9.94101 40.0774 9.9307C40.2326 9.92554 40.3526 9.92298 40.4333 9.92171C40.4737 9.92107 40.5042 9.92076 40.5243 9.9206L40.5467 9.92047L40.552 9.92045L40.5533 9.92045Z" fill="black"/>
<path d="M39.9399 11.3215C40.1758 11.3962 40.3082 11.6537 40.2356 11.8967L39.8085 11.7613C40.2356 11.8967 40.2356 11.8965 40.2356 11.8967L40.2349 11.899L40.2331 11.9048L40.2264 11.9272L40.2001 12.0132C40.1769 12.0884 40.1427 12.1984 40.0978 12.3392C40.0082 12.6208 39.8762 13.0257 39.7062 13.5208C39.3664 14.5105 38.8739 15.8632 38.2637 17.3136C37.654 18.7629 36.9236 20.3173 36.1067 21.7075C35.2936 23.0913 34.3769 24.3435 33.3855 25.1604C31.4315 26.7706 29.4663 27.1789 27.9867 27.1789C27.2493 27.1789 26.6337 27.0777 26.2 26.9756C25.9829 26.9245 25.8107 26.873 25.6907 26.8334C25.6306 26.8136 25.5836 26.7968 25.5505 26.7845C25.5339 26.7783 25.5208 26.7733 25.5113 26.7695L25.4997 26.7649L25.496 26.7634L25.4946 26.7629C25.4944 26.7628 25.4936 26.7625 25.6596 26.3351L25.4936 26.7625C25.2645 26.6681 25.1531 26.4002 25.2447 26.1642C25.3362 25.9285 25.5957 25.8137 25.8246 25.9075L25.8294 25.9094L25.8541 25.9188C25.8774 25.9274 25.914 25.9406 25.963 25.9567C26.0612 25.9891 26.2089 26.0335 26.3991 26.0783C26.7799 26.1679 27.3279 26.2584 27.9867 26.2584C29.2997 26.2584 31.0579 25.8997 32.8273 24.4417C33.6976 23.7245 34.5496 22.5798 35.3422 21.2309C36.131 19.8886 36.8434 18.3748 37.4438 16.9476C38.0437 15.5217 38.5286 14.1897 38.8637 13.2139C39.0311 12.7262 39.1609 12.3281 39.2487 12.0524C39.2926 11.9145 39.326 11.8073 39.3483 11.7349L39.3734 11.6528L39.3796 11.6323L39.3814 11.6262C39.454 11.3833 39.7041 11.2467 39.9399 11.3215Z" fill="black"/>
<path d="M34.4663 20.6309C34.698 20.281 34.6104 19.8037 34.2706 19.5651C33.9308 19.3264 33.4675 19.4167 33.2358 19.7667C32.0997 21.4828 31.2744 22.3807 30.5137 22.8449C29.7952 23.2835 29.0606 23.3791 27.9649 23.2705C27.5555 23.2299 27.1917 23.5389 27.1523 23.9606C27.113 24.3822 27.4129 24.757 27.8223 24.7975C29.0794 24.9221 30.1751 24.8348 31.273 24.1647C32.3287 23.5203 33.3058 22.384 34.4663 20.6309Z" fill="black"/>
<path d="M42.654 29.566C42.006 29.566 41.394 29.446 40.818 29.206C40.242 28.978 39.774 28.624 39.414 28.144C39.066 27.664 38.892 27.064 38.892 26.344C38.892 25.72 39.012 25.234 39.252 24.886C39.504 24.538 39.81 24.292 40.17 24.148C40.53 24.004 40.872 23.932 41.196 23.932C40.872 24.28 40.626 24.664 40.458 25.084C40.29 25.504 40.206 25.924 40.206 26.344C40.206 26.788 40.302 27.202 40.494 27.586C40.698 27.97 41.004 28.276 41.412 28.504C41.82 28.744 42.336 28.864 42.96 28.864C43.5 28.864 44.028 28.762 44.544 28.558C45.06 28.366 45.48 28.078 45.804 27.694C46.14 27.298 46.308 26.812 46.308 26.236C46.308 25.72 46.176 25.276 45.912 24.904C45.648 24.532 45.306 24.202 44.886 23.914C44.478 23.626 44.04 23.35 43.572 23.086C43.104 22.822 42.66 22.546 42.24 22.258C41.832 21.958 41.496 21.616 41.232 21.232C40.968 20.848 40.836 20.386 40.836 19.846C40.836 19.342 40.956 18.814 41.196 18.262C41.436 17.71 41.778 17.188 42.222 16.696C42.678 16.204 43.218 15.808 43.842 15.508C44.478 15.196 45.186 15.04 45.966 15.04C46.674 15.04 47.166 15.214 47.442 15.562C47.718 15.898 47.856 16.324 47.856 16.84C47.856 17.272 47.778 17.74 47.622 18.244C47.478 18.736 47.298 19.21 47.082 19.666C46.866 20.11 46.662 20.488 46.47 20.8C46.254 20.752 46.098 20.662 46.002 20.53C45.918 20.386 45.876 20.218 45.876 20.026C45.876 19.774 45.93 19.486 46.038 19.162C46.146 18.838 46.266 18.502 46.398 18.154C46.542 17.806 46.668 17.47 46.776 17.146C46.884 16.81 46.938 16.51 46.938 16.246C46.938 16.006 46.866 15.82 46.722 15.688C46.578 15.544 46.314 15.472 45.93 15.472C45.366 15.472 44.844 15.604 44.364 15.868C43.884 16.132 43.464 16.474 43.104 16.894C42.744 17.302 42.462 17.734 42.258 18.19C42.066 18.646 41.97 19.06 41.97 19.432C41.97 19.876 42.096 20.26 42.348 20.584C42.612 20.896 42.948 21.184 43.356 21.448C43.764 21.7 44.196 21.958 44.652 22.222C45.12 22.474 45.558 22.756 45.966 23.068C46.374 23.38 46.704 23.752 46.956 24.184C47.22 24.604 47.352 25.12 47.352 25.732C47.352 26.356 47.214 26.908 46.938 27.388C46.662 27.856 46.29 28.252 45.822 28.576C45.366 28.9 44.862 29.146 44.31 29.314C43.758 29.482 43.206 29.566 42.654 29.566ZM47.5164 33.04C47.4204 33.04 47.3304 32.986 47.2464 32.878C47.1504 32.782 47.0784 32.674 47.0304 32.554C46.9824 32.446 46.9584 32.38 46.9584 32.356C47.1264 31.768 47.2944 31.24 47.4624 30.772C47.6184 30.316 47.7804 29.842 47.9484 29.35C48.1044 28.87 48.2604 28.306 48.4164 27.658C48.5724 26.998 48.7344 26.182 48.9024 25.21C49.0704 24.238 49.2384 23.032 49.4064 21.592C49.4184 21.484 49.4424 21.406 49.4784 21.358C49.5144 21.31 49.6044 21.286 49.7484 21.286C50.0604 21.286 50.2824 21.376 50.4144 21.556C50.5464 21.724 50.6124 21.91 50.6124 22.114C50.6124 22.282 50.5764 22.582 50.5044 23.014C50.4324 23.446 50.3304 23.956 50.1984 24.544C50.4024 24.148 50.6544 23.746 50.9544 23.338C51.2664 22.93 51.6204 22.588 52.0164 22.312C52.4124 22.036 52.8444 21.898 53.3124 21.898C53.8404 21.898 54.2724 22.09 54.6084 22.474C54.9564 22.846 55.1304 23.338 55.1304 23.95C55.1304 24.418 55.0224 24.916 54.8064 25.444C54.6024 25.96 54.3084 26.452 53.9244 26.92C53.5524 27.376 53.1084 27.748 52.5924 28.036C52.0764 28.324 51.5064 28.468 50.8824 28.468C50.5704 28.468 50.3184 28.432 50.1264 28.36C49.9344 28.288 49.8384 28.216 49.8384 28.144C49.8384 28.096 49.8804 28.066 49.9644 28.054C50.0604 28.054 50.1684 28.054 50.2884 28.054C50.7684 28.054 51.2244 27.94 51.6564 27.712C52.1004 27.472 52.4964 27.16 52.8444 26.776C53.1924 26.392 53.4624 25.966 53.6544 25.498C53.8584 25.03 53.9604 24.568 53.9604 24.112C53.9604 23.728 53.8764 23.404 53.7084 23.14C53.5524 22.864 53.2944 22.726 52.9344 22.726C52.6224 22.726 52.3104 22.828 51.9984 23.032C51.6984 23.224 51.4104 23.476 51.1344 23.788C50.8704 24.088 50.6304 24.406 50.4144 24.742C50.2104 25.066 50.0544 25.36 49.9464 25.624C49.7304 26.524 49.5144 27.388 49.2984 28.216C49.0824 29.056 48.8724 29.812 48.6684 30.484C48.4764 31.168 48.3024 31.726 48.1464 32.158C47.9784 32.59 47.8404 32.854 47.7324 32.95C47.6724 33.01 47.6004 33.04 47.5164 33.04ZM58.7956 28.468C58.3876 28.468 58.0636 28.36 57.8236 28.144C57.5956 27.928 57.4816 27.646 57.4816 27.298C57.4816 26.938 57.5656 26.56 57.7336 26.164C57.9016 25.768 58.0636 25.378 58.2196 24.994C58.3876 24.598 58.4716 24.244 58.4716 23.932C58.4716 23.548 58.3576 23.266 58.1296 23.086C57.9136 22.894 57.6916 22.72 57.4636 22.564C57.1876 23.272 56.8996 23.944 56.5996 24.58C56.2996 25.216 56.0536 25.696 55.8616 26.02L55.6996 25.714C55.8676 25.402 56.0836 24.946 56.3476 24.346C56.6236 23.746 56.8936 23.062 57.1576 22.294C57.0376 22.174 56.9776 22.03 56.9776 21.862C56.9776 21.502 57.0796 21.208 57.2836 20.98C57.4876 20.752 57.6376 20.638 57.7336 20.638C57.8656 20.638 57.9376 20.698 57.9496 20.818C57.9736 20.926 57.9856 21.01 57.9856 21.07C57.9856 21.13 57.9496 21.25 57.8776 21.43C57.8176 21.598 57.7876 21.7 57.7876 21.736C57.7876 21.904 57.8776 22.06 58.0576 22.204C58.2496 22.336 58.4656 22.492 58.7056 22.672C58.9456 22.84 59.1556 23.05 59.3356 23.302C59.5276 23.542 59.6236 23.854 59.6236 24.238C59.6236 24.598 59.5456 24.964 59.3896 25.336C59.2456 25.708 59.0956 26.062 58.9396 26.398C58.7956 26.734 58.7236 27.028 58.7236 27.28C58.7236 27.496 58.7776 27.64 58.8856 27.712C58.9936 27.784 59.1196 27.82 59.2636 27.82C59.5516 27.82 59.8456 27.73 60.1456 27.55C60.4576 27.37 60.7576 27.142 61.0456 26.866C61.3336 26.59 61.5916 26.302 61.8196 26.002C62.0476 25.69 62.2156 25.402 62.3236 25.138L62.5576 25.318C62.3296 25.822 62.0176 26.32 61.6216 26.812C61.2256 27.292 60.7816 27.688 60.2896 28C59.8096 28.312 59.3116 28.468 58.7956 28.468ZM63.2355 28.468C62.7675 28.468 62.4195 28.318 62.1915 28.018C61.9635 27.73 61.8495 27.376 61.8495 26.956C61.8495 26.68 61.8975 26.332 61.9935 25.912C62.1015 25.492 62.2395 25.054 62.4075 24.598C62.5755 24.13 62.7675 23.692 62.9835 23.284C63.2115 22.876 63.4515 22.546 63.7035 22.294C63.9555 22.03 64.2015 21.898 64.4415 21.898C64.5495 21.898 64.6395 21.934 64.7115 22.006C64.7955 22.066 64.8375 22.162 64.8375 22.294C64.8375 22.438 64.7415 22.672 64.5495 22.996C64.3695 23.32 64.1535 23.692 63.9015 24.112C63.6495 24.532 63.4275 24.976 63.2355 25.444C63.0555 25.9 62.9655 26.338 62.9655 26.758C62.9655 27.19 63.0375 27.478 63.1815 27.622C63.3255 27.766 63.5475 27.838 63.8475 27.838C64.2555 27.838 64.6875 27.634 65.1435 27.226C65.6115 26.818 66.1035 26.104 66.6195 25.084L66.7815 25.264C66.4335 26.296 65.9295 27.088 65.2695 27.64C64.6215 28.192 63.9435 28.468 63.2355 28.468ZM65.3955 20.224C65.2035 20.224 65.0295 20.176 64.8735 20.08C64.7295 19.984 64.6575 19.834 64.6575 19.63C64.6575 19.378 64.8015 19.162 65.0895 18.982C65.3895 18.79 65.6835 18.694 65.9715 18.694C66.1515 18.694 66.2955 18.736 66.4035 18.82C66.5115 18.904 66.5655 19.048 66.5655 19.252C66.5655 19.48 66.4395 19.702 66.1875 19.918C65.9475 20.122 65.6835 20.224 65.3955 20.224ZM72.0953 28.36C71.6753 28.36 71.3573 28.252 71.1413 28.036C70.9373 27.82 70.8353 27.544 70.8353 27.208C70.8353 26.956 70.8773 26.692 70.9613 26.416C71.0573 26.14 71.1473 25.858 71.2313 25.57C71.3153 25.27 71.3573 24.982 71.3573 24.706C71.3573 24.37 71.2853 24.142 71.1413 24.022C71.0093 23.89 70.8413 23.824 70.6373 23.824C70.2653 23.824 69.8873 23.98 69.5033 24.292C69.1193 24.592 68.7473 24.982 68.3873 25.462C68.0273 25.93 67.6913 26.416 67.3793 26.92C67.0673 27.424 66.7913 27.874 66.5513 28.27C66.3593 28.27 66.1792 28.234 66.0112 28.162C65.8312 28.102 65.6932 28.006 65.5972 27.874C65.5972 27.814 65.6632 27.628 65.7952 27.316C65.9152 27.004 66.0592 26.62 66.2272 26.164C66.3953 25.708 66.5453 25.24 66.6773 24.76C66.8093 24.28 66.8752 23.842 66.8752 23.446C66.9473 23.362 67.0613 23.278 67.2173 23.194C67.3733 23.11 67.5353 23.068 67.7033 23.068C68.0273 23.068 68.1893 23.224 68.1893 23.536C68.1893 23.728 68.1353 24.052 68.0273 24.508C67.9193 24.952 67.7813 25.42 67.6133 25.912C67.9373 25.42 68.2973 24.934 68.6933 24.454C69.1013 23.962 69.5333 23.554 69.9893 23.23C70.4453 22.906 70.9013 22.744 71.3573 22.744C71.8253 22.744 72.1613 22.912 72.3653 23.248C72.5813 23.584 72.6893 23.956 72.6893 24.364C72.6893 24.736 72.6293 25.084 72.5093 25.408C72.3893 25.72 72.2633 26.026 72.1313 26.326C72.0113 26.614 71.9513 26.908 71.9513 27.208C71.9513 27.46 71.9993 27.64 72.0953 27.748C72.2033 27.844 72.3353 27.892 72.4913 27.892C72.7913 27.892 73.0913 27.754 73.3913 27.478C73.6913 27.19 73.9793 26.83 74.2553 26.398C74.5433 25.966 74.7953 25.528 75.0113 25.084L75.2093 25.318C74.9573 25.906 74.6753 26.428 74.3633 26.884C74.0513 27.34 73.7093 27.7 73.3373 27.964C72.9653 28.228 72.5513 28.36 72.0953 28.36ZM75.35 33.04C75.086 33.04 74.846 32.956 74.63 32.788C74.414 32.632 74.306 32.368 74.306 31.996C74.306 31.636 74.42 31.3 74.648 30.988C74.864 30.688 75.146 30.406 75.494 30.142C75.842 29.89 76.22 29.656 76.628 29.44C77.048 29.224 77.444 29.02 77.816 28.828C77.984 28.408 78.14 27.958 78.284 27.478C78.44 26.986 78.59 26.446 78.734 25.858C78.278 26.518 77.798 27.07 77.294 27.514C76.802 27.946 76.304 28.162 75.8 28.162C75.368 28.162 75.032 28 74.792 27.676C74.564 27.352 74.45 26.932 74.45 26.416C74.45 25.792 74.6 25.198 74.9 24.634C75.212 24.07 75.614 23.572 76.106 23.14C76.598 22.708 77.12 22.372 77.672 22.132C78.224 21.88 78.74 21.754 79.22 21.754C79.568 21.754 79.814 21.814 79.958 21.934C80.114 22.042 80.192 22.174 80.192 22.33C80.192 22.438 80.162 22.522 80.102 22.582C80.042 22.642 80 22.678 79.976 22.69C79.916 22.594 79.826 22.528 79.706 22.492C79.586 22.444 79.436 22.42 79.256 22.42C78.788 22.42 78.332 22.558 77.888 22.834C77.456 23.11 77.072 23.464 76.736 23.896C76.4 24.328 76.13 24.778 75.926 25.246C75.734 25.702 75.638 26.122 75.638 26.506C75.638 26.794 75.692 27.016 75.8 27.172C75.92 27.316 76.076 27.388 76.268 27.388C76.616 27.388 77.03 27.16 77.51 26.704C78.002 26.236 78.476 25.672 78.932 25.012C78.968 24.844 78.998 24.694 79.022 24.562C79.058 24.43 79.1 24.262 79.148 24.058C79.184 23.89 79.268 23.698 79.4 23.482C79.544 23.254 79.766 23.14 80.066 23.14C80.126 23.14 80.186 23.146 80.246 23.158C80.306 23.158 80.372 23.17 80.444 23.194C80.444 23.386 80.384 23.74 80.264 24.256C80.156 24.76 79.994 25.354 79.778 26.038C79.574 26.71 79.334 27.406 79.058 28.126C79.454 27.934 79.838 27.688 80.21 27.388C80.594 27.088 80.942 26.746 81.254 26.362C81.566 25.966 81.812 25.54 81.992 25.084L82.226 25.264C82.046 25.804 81.758 26.296 81.362 26.74C80.966 27.184 80.54 27.568 80.084 27.892C79.64 28.216 79.232 28.468 78.86 28.648C78.524 29.452 78.17 30.184 77.798 30.844C77.426 31.516 77.036 32.05 76.628 32.446C76.232 32.842 75.806 33.04 75.35 33.04ZM75.296 32.464C75.536 32.464 75.86 32.224 76.268 31.744C76.688 31.276 77.138 30.466 77.618 29.314C77.138 29.554 76.688 29.8 76.268 30.052C75.86 30.316 75.524 30.592 75.26 30.88C74.996 31.168 74.864 31.486 74.864 31.834C74.864 32.026 74.906 32.176 74.99 32.284C75.074 32.404 75.176 32.464 75.296 32.464ZM83.1561 28.54C82.6401 28.54 82.2681 28.36 82.0401 28C81.8241 27.652 81.7161 27.214 81.7161 26.686C81.7161 26.11 81.8241 25.426 82.0401 24.634C82.2561 23.842 82.5381 23.008 82.8861 22.132C83.2461 21.256 83.6361 20.404 84.0561 19.576C84.4761 18.736 84.8961 17.974 85.3161 17.29C85.7361 16.606 86.1201 16.06 86.4681 15.652C86.8281 15.244 87.1101 15.04 87.3141 15.04C87.4461 15.04 87.5541 15.118 87.6381 15.274C87.7221 15.418 87.7881 15.598 87.8361 15.814C87.8841 16.018 87.9081 16.204 87.9081 16.372C87.9081 16.696 87.8241 17.122 87.6561 17.65C87.5001 18.166 87.2721 18.748 86.9721 19.396C86.6841 20.032 86.3361 20.68 85.9281 21.34C85.5321 21.988 85.0941 22.612 84.6141 23.212C84.1461 23.812 83.6481 24.328 83.1201 24.76C83.0481 25.084 82.9881 25.402 82.9401 25.714C82.9041 26.014 82.8861 26.302 82.8861 26.578C82.8861 27.046 82.9521 27.394 83.0841 27.622C83.2161 27.85 83.4141 27.964 83.6781 27.964C84.0021 27.964 84.3201 27.82 84.6321 27.532C84.9561 27.244 85.2561 26.884 85.5321 26.452C85.8201 26.008 86.0661 25.552 86.2701 25.084L86.5401 25.228C86.0601 26.248 85.5381 27.058 84.9741 27.658C84.4101 28.246 83.8041 28.54 83.1561 28.54ZM83.2821 24.148C83.7021 23.728 84.1101 23.248 84.5061 22.708C84.9021 22.156 85.2681 21.586 85.6041 20.998C85.9521 20.41 86.2581 19.84 86.5221 19.288C86.7861 18.736 86.9901 18.244 87.1341 17.812C87.2781 17.368 87.3501 17.026 87.3501 16.786C87.3501 16.666 87.3321 16.588 87.2961 16.552C87.2721 16.516 87.2481 16.498 87.2241 16.498C87.1281 16.498 86.9601 16.654 86.7201 16.966C86.4921 17.266 86.2221 17.674 85.9101 18.19C85.5981 18.706 85.2801 19.294 84.9561 19.954C84.6321 20.614 84.3201 21.304 84.0201 22.024C83.7321 22.744 83.4861 23.452 83.2821 24.148ZM87.86 28.792C87.128 28.792 86.576 28.588 86.204 28.18C85.844 27.784 85.664 27.292 85.664 26.704C85.664 26.164 85.796 25.594 86.06 24.994C86.336 24.394 86.696 23.83 87.14 23.302C87.596 22.774 88.094 22.348 88.634 22.024C89.174 21.688 89.708 21.52 90.236 21.52C90.512 21.52 90.764 21.592 90.992 21.736C91.232 21.88 91.352 22.174 91.352 22.618C91.352 23.074 91.214 23.506 90.938 23.914C90.674 24.31 90.32 24.664 89.876 24.976C89.444 25.288 88.964 25.546 88.436 25.75C87.92 25.942 87.404 26.062 86.888 26.11C86.864 26.23 86.846 26.344 86.834 26.452C86.822 26.56 86.816 26.662 86.816 26.758C86.816 26.938 86.834 27.118 86.87 27.298C86.918 27.478 86.996 27.646 87.104 27.802C87.212 27.946 87.356 28.06 87.536 28.144C87.728 28.228 87.962 28.27 88.238 28.27C88.754 28.27 89.264 28.126 89.768 27.838C90.272 27.538 90.74 27.148 91.172 26.668C91.604 26.188 91.97 25.66 92.27 25.084L92.486 25.246C92.162 25.966 91.748 26.59 91.244 27.118C90.752 27.646 90.212 28.054 89.624 28.342C89.048 28.642 88.46 28.792 87.86 28.792ZM86.978 25.768C87.302 25.66 87.668 25.504 88.076 25.3C88.484 25.084 88.874 24.832 89.246 24.544C89.63 24.256 89.942 23.938 90.182 23.59C90.434 23.242 90.56 22.876 90.56 22.492C90.56 22.36 90.536 22.258 90.488 22.186C90.44 22.114 90.338 22.078 90.182 22.078C89.894 22.078 89.588 22.192 89.264 22.42C88.94 22.636 88.628 22.924 88.328 23.284C88.028 23.644 87.758 24.04 87.518 24.472C87.278 24.904 87.098 25.336 86.978 25.768ZM95.0242 28.468C94.6162 28.468 94.2922 28.36 94.0522 28.144C93.8242 27.928 93.7102 27.646 93.7102 27.298C93.7102 26.938 93.7942 26.56 93.9622 26.164C94.1302 25.768 94.2922 25.378 94.4482 24.994C94.6162 24.598 94.7002 24.244 94.7002 23.932C94.7002 23.548 94.5862 23.266 94.3582 23.086C94.1422 22.894 93.9202 22.72 93.6922 22.564C93.4162 23.272 93.1282 23.944 92.8282 24.58C92.5282 25.216 92.2822 25.696 92.0902 26.02L91.9282 25.714C92.0962 25.402 92.3122 24.946 92.5762 24.346C92.8522 23.746 93.1222 23.062 93.3862 22.294C93.2662 22.174 93.2062 22.03 93.2062 21.862C93.2062 21.502 93.3082 21.208 93.5122 20.98C93.7162 20.752 93.8662 20.638 93.9622 20.638C94.0942 20.638 94.1662 20.698 94.1782 20.818C94.2022 20.926 94.2142 21.01 94.2142 21.07C94.2142 21.13 94.1782 21.25 94.1062 21.43C94.0462 21.598 94.0162 21.7 94.0162 21.736C94.0162 21.904 94.1062 22.06 94.2862 22.204C94.4782 22.336 94.6942 22.492 94.9342 22.672C95.1742 22.84 95.3842 23.05 95.5642 23.302C95.7562 23.542 95.8522 23.854 95.8522 24.238C95.8522 24.598 95.7742 24.964 95.6182 25.336C95.4742 25.708 95.3242 26.062 95.1682 26.398C95.0242 26.734 94.9522 27.028 94.9522 27.28C94.9522 27.496 95.0062 27.64 95.1142 27.712C95.2222 27.784 95.3482 27.82 95.4922 27.82C95.7802 27.82 96.0742 27.73 96.3742 27.55C96.6862 27.37 96.9862 27.142 97.2742 26.866C97.5622 26.59 97.8202 26.302 98.0482 26.002C98.2762 25.69 98.4442 25.402 98.5522 25.138L98.7862 25.318C98.5582 25.822 98.2462 26.32 97.8502 26.812C97.4542 27.292 97.0102 27.688 96.5182 28C96.0382 28.312 95.5402 28.468 95.0242 28.468Z" fill="black"/>
</svg>
